Coordinates
version=1
nRows=25
nColumns=28
inDegrees=yes

Units are S.I. units (second, meters, Newtons, ...)
Angles are in degrees.

endheader
time	pelvis_tilt	pelvis_list	pelvis_rotation	pelvis_tx	pelvis_ty	pelvis_tz	hip_flexion_r	hip_adduction_r	hip_rotation_r	knee_angle_r	ankle_angle_r	subtalar_angle_r	mtp_angle_r	hip_flexion_l	hip_adduction_l	hip_rotation_l	knee_angle_l	socket_flexion	socket_adduction	socket_rotation	socket_tx	socket_ty	socket_tz	foot_flex	lumbar_extension	lumbar_bending	lumbar_rotation
      0.81250000	     -1.50554089	     -9.70990084	      7.22469808	      0.40963500	      0.98088506	      0.28831017	      8.68504215	     17.69927774	      8.56113112	    -17.95047491	     -1.44909080	    -37.07964410	    -16.93859436	     23.98900898	    -14.70881029	      2.91017374	    -69.95237429	      0.00000000	      0.00000000	      0.00000000	      0.00000000	      0.00000000	      0.00000000	     -1.22152571	     -5.50600013	      7.54022824	     -7.85105321
      0.81666667	     -1.58341906	     -9.35318379	      7.19813491	      0.41506872	      0.98215742	      0.28742955	      8.08175164	     17.21249084	      8.56734827	    -17.49617912	     -1.43777632	    -36.76150403	    -16.73764547	     24.64735195	    -13.93489824	      3.12342650	    -69.56707534	      0.00000000	      0.00000000	      0.00000000	      0.00000000	      0.00000000	      0.00000000	     -1.30795274	     -5.48687576	      7.21297223	     -7.70779717
      0.82083333	     -1.64480645	     -8.99567247	      7.17717740	      0.42058256	      0.98343284	      0.28662040	      7.45736837	     16.73106737	      8.53896128	    -17.02397764	     -1.41803301	    -36.40335049	    -16.50536603	     25.24970929	    -13.19254795	      3.31040414	    -69.09940688	      0.00000000	      0.00000000	      0.00000000	      0.00000000	      0.00000000	      0.00000000	     -1.39217836	     -5.47604318	      6.88400438	     -7.56517068
      0.82500000	     -1.34859852	     -8.44191364	      7.32431092	      0.42634460	      0.98519231	      0.28529296	      6.60011166	     15.88202884	      7.42313901	    -16.78648672	     -0.79444605	    -34.17640912	    -12.32354789	     25.34908409	    -12.23576784	      3.49607665	    -68.47294652	      0.00000000	      0.00000000	      0.00000000	      0.00000000	      0.00000000	      0.00000000	     -1.46677140	     -5.88415846	      6.40657391	     -7.57642428
      0.82916667	     -1.46278069	     -8.19445718	      7.22185299	      0.43162469	      0.98616939	      0.28476812	      6.10082057	     15.56488563	      7.55872821	    -16.40661713	     -0.82413065	    -34.09974781	    -12.29497527	     26.03708133	    -11.68026629	      3.62638269	    -68.00127759	      0.00000000	      0.00000000	      0.00000000	      0.00000000	      0.00000000	      0.00000000	     -1.46499402	     -5.90925316	      6.24455349	     -7.48020201
      0.83333333	     -1.43154406	     -7.76601349	      7.19688520	      0.43752131	      0.98762035	      0.28411985	      5.30929139	     15.03174627	      7.52772671	    -15.84613991	     -1.05737884	    -33.82907357	    -12.14453782	     26.34877982	    -10.95276760	      3.71114832	    -67.23283979	      0.00000000	      0.00000000	      0.00000000	      0.00000000	      0.00000000	      0.00000000	     -1.54767801	     -5.88682470	      5.76812009	     -7.26461953
      0.83750000	     -1.51563806	     -7.54428884	      7.13511867	      0.44293074	      0.98858810	      0.28365968	      4.74890088	     14.75588996	      7.68493055	    -15.39603248	     -1.03312866	    -33.70634467	    -12.06680915	     26.95192819	    -10.45743651	      3.85999227	    -66.61854334	      0.00000000	      0.00000000	      0.00000000	      0.00000000	      0.00000000	      0.00000000	     -1.57872097	     -5.88941815	      5.56415135	     -7.14814749
      0.84166667	     -1.21094226	     -7.10530117	      7.06410221	      0.44879426	      0.99035425	      0.28328311	      3.66868573	     14.25875082	      7.64884554	    -14.83517828	     -1.13754659	    -33.28832574	    -11.59767208	     26.89249953	     -9.87034435	      3.79794810	    -65.71871606	      0.00000000	      0.00000000	      0.00000000	      0.00000000	      0.00000000	      0.00000000	     -1.61052689	     -6.29427428	      5.11984455	     -6.88740374
      0.84583333	     -1.33221184	     -6.89227358	      7.00260395	      0.45434776	      0.99120864	      0.28293349	      3.15563590	     13.99078524	      7.77030137	    -14.39693135	     -1.17654335	    -33.15648069	    -11.51535275	     27.46402130	     -9.42152568	      3.92652175	    -64.96891725	      0.00000000	      0.00000000	      0.00000000	      0.00000000	      0.00000000	      0.00000000	     -1.60551570	     -6.19093474	      4.91676024	     -6.77565724
      0.85000000	     -1.40404118	     -6.64840444	      6.92611720	      0.45995823	      0.99212665	      0.28269489	      2.59362439	     13.69762746	      7.85041093	    -13.97024835	     -1.27809379	    -33.00520567	    -11.43729775	     27.92165040	     -8.99105671	      3.99106665	    -64.11809324	      0.00000000	      0.00000000	      0.00000000	      0.00000000	      0.00000000	      0.00000000	     -1.60510381	     -6.12251884	      4.65390540	     -6.64262733
      0.85416667	     -1.48048569	     -6.42643549	      6.82732559	      0.46554558	      0.99298320	      0.28245470	      2.06133131	     13.42693103	      7.94667918	    -13.57613227	     -1.35301084	    -32.88206219	    -11.37591383	     28.35841413	     -8.59899207	      4.04595191	    -63.22585233	      0.00000000	      0.00000000	      0.00000000	      0.00000000	      0.00000000	      0.00000000	     -1.56812785	     -6.11516785	      4.46597072	     -6.52118977
      0.85833333	     -1.54201170	     -6.19928392	      6.72542660	      0.47116456	      0.99382164	      0.28236234	      1.50107502	     13.16348342	      8.04120553	    -13.15844339	     -1.44200945	    -32.76212075	    -11.32167169	     28.74839818	     -8.24399757	      4.06051555	    -62.26762052	      0.00000000	      0.00000000	      0.00000000	      0.00000000	      0.00000000	      0.00000000	     -1.53358257	     -6.09710178	      4.25218052	     -6.38607916
      0.86250000	     -1.53988837	     -5.93116038	      6.62938639	      0.47697655	      0.99478352	      0.28231922	      0.83551139	     12.87342348	      8.19365460	    -12.70906281	     -1.59137777	    -32.62145391	    -11.25581049	     28.98814071	     -7.88176963	      4.03938892	    -61.19328890	      0.00000000	      0.00000000	      0.00000000	      0.00000000	      0.00000000	      0.00000000	     -1.50834870	     -6.05854932	      3.89636201	     -6.19892292
      0.86666667	     -1.41906066	     -5.61267977	      6.45008128	      0.48270089	      0.99590763	      0.28248061	      0.04493261	     12.53817468	      8.38086243	    -12.26407403	     -1.79246519	    -32.53540860	    -11.15024949	     29.02756767	     -7.56847660	      3.84878562	    -60.01414731	      0.00000000	      0.00000000	      0.00000000	      0.00000000	      0.00000000	      0.00000000	     -1.45817450	     -6.30796604	      3.51759065	     -5.93386070
      0.87083333	     -1.05827949	     -5.27252063	      6.19246865	      0.48832992	      0.99740027	      0.28285325	     -0.98789277	     12.23301979	      8.75814139	    -11.85707178	     -2.04409694	    -32.69789513	    -10.91230191	     28.73389680	     -7.32640978	      3.57216285	    -58.73657564	      0.00000000	      0.00000000	      0.00000000	      0.00000000	      0.00000000	      0.00000000	     -1.36406724	     -6.86386954	      3.16801515	     -5.49510932
      0.87500000	     -1.19731144	     -5.14441977	      6.10395257	      0.49397210	      0.99785919	      0.28286053	     -1.41072059	     12.07896551	      8.84649909	    -11.50119420	     -2.11957064	    -32.66263130	    -10.88878293	     29.14067513	     -7.12517563	      3.57205015	    -57.58826149	      0.00000000	      0.00000000	      0.00000000	      0.00000000	      0.00000000	      0.00000000	     -1.28000399	     -6.71003629	      3.03971574	     -5.40770260
      0.87916667	     -1.25939958	     -4.90295791	      5.90764411	      0.49965396	      0.99850745	      0.28312019	     -1.93701188	     11.81557128	      9.07296398	    -11.15013242	     -2.33072689	    -32.66855358	    -10.87623499	     29.33575491	     -6.89874802	      3.39238679	    -56.28841273	      0.00000000	      0.00000000	      0.00000000	      0.00000000	      0.00000000	      0.00000000	     -1.20732600	     -6.71540971	      2.71978650	     -5.22335578
      0.88333333	     -1.04650282	     -4.64284012	      5.59148980	      0.50532273	      0.99960697	      0.28363520	     -2.78880266	     11.57853059	      9.55208597	    -10.76496768	     -2.60241857	    -33.03159112	    -10.87340120	     29.13225857	     -6.79011282	      3.02717504	    -54.85702556	      0.00000000	      0.00000000	      0.00000000	      0.00000000	      0.00000000	      0.00000000	     -1.13203324	     -7.03956683	      2.44432770	     -4.73715438
      0.88750000	     -1.19389564	     -4.47730629	      5.44806342	      0.51097932	      0.99994042	      0.28378616	     -3.17965754	     11.38798915	      9.70656061	    -10.45965709	     -2.76063104	    -33.02198832	    -10.90426578	     29.41686049	     -6.61579532	      2.90735935	    -53.50178435	      0.00000000	      0.00000000	      0.00000000	      0.00000000	      0.00000000	      0.00000000	     -1.00155871	     -6.91388904	      2.22159716	     -4.64036469
      0.89166667	     -1.30637491	     -4.38357864	      5.31189631	      0.51655472	      1.00021242	      0.28395341	     -3.57024455	     11.28082959	      9.81117103	    -10.19692682	     -2.80379944	    -33.02588685	    -10.91857382	     29.67095834	     -6.52928935	      2.79547419	    -52.11619212	      0.00000000	      0.00000000	      0.00000000	      0.00000000	      0.00000000	      0.00000000	     -0.87784999	     -6.79191403	      2.14590269	     -4.54781126
      0.89583333	     -1.09936959	     -4.01603981	      4.83281776	      0.52234503	      1.00126275	      0.28478026	     -4.42953290	     10.91065138	     10.47877160	     -9.83197652	     -3.08995535	    -33.34191977	    -11.06224477	     29.27424518	     -6.43598575	      2.12585212	    -50.41910725	      0.00000000	      0.00000000	      0.00000000	      0.00000000	      0.00000000	      0.00000000	     -0.77743529	     -7.15610444	      1.66142230	     -3.93005304
      0.90000000	     -1.23067199	     -4.09894813	      4.75790774	      0.52744200	      1.00119982	      0.28475086	     -4.63378167	     10.99071671	     10.44232836	     -9.78139096	     -3.08599293	    -33.34530643	    -11.06526195	     29.63944420	     -6.46697367	      2.19439831	    -49.07299208	      0.00000000	      0.00000000	      0.00000000	      0.00000000	      0.00000000	      0.00000000	     -0.62925411	     -7.20420348	      1.73304474	     -3.91937472
      0.90416667	     -1.08782557	     -3.63321048	      4.27565100	      0.53370171	      1.00214188	      0.28548784	     -5.55404073	     10.47498544	     11.14194546	     -9.22383931	     -3.48773477	    -33.68483067	    -11.32433399	     29.14271812	     -6.28274712	      1.37208022	    -47.15590076	      0.00000000	      0.00000000	      0.00000000	      0.00000000	      0.00000000	      0.00000000	     -0.53989104	     -7.26973670	      1.19323570	     -3.24796889
      0.90833333	     -1.25604506	     -3.60750611	      4.17448498	      0.53924705	      1.00204607	      0.28548805	     -5.83762672	     10.42328117	     11.17392226	     -9.03086886	     -3.50521794	    -33.66984233	    -11.33872641	     29.36944849	     -6.24744902	      1.25368670	    -45.58458980	      0.00000000	      0.00000000	      0.00000000	      0.00000000	      0.00000000	      0.00000000	     -0.43138816	     -7.08722393	      1.21993544	     -3.23570739
      0.91250000	     -1.37791483	     -3.31422860	      3.82727800	      0.54521775	      1.00223388	      0.28584693	     -6.28993253	     10.05258662	     11.51312655	     -8.71063293	     -3.66387656	    -33.61118873	    -11.38029252	     29.26680109	     -6.08338802	      0.72672245	    -43.73890122	      0.00000000	      0.00000000	      0.00000000	      0.00000000	      0.00000000	      0.00000000	     -0.34568016	     -6.93229257	      0.79474534	     -3.04365430
